# xmcd CD database file
#
# Track frame offsets:
#	150
#	11710
#	29495
#	46480
#	61460
#	79870
#	93560
#	118160
#	136570
#	151675
#	165315
#
# Disc length: 2475 seconds
#
# Revision: 0
# Processed by: cddbd v1.5PL3 Copyright (c) Steve Scherf et al.
# Submitted via: CDex 1.51
#
DISCID=8309a90b
DTITLE=Floyd Smith - Relaxin' With Floyd
DYEAR=1972
DGENRE=Jazz
TTITLE0=Petite Mademoiselle
TTITLE1=Mama Talks Soft
TTITLE2=Relaxin' With Floyd
TTITLE3=Floyd's Guitar Blues
TTITLE4=Satin Doll
TTITLE5=Take It Easy Blues
TTITLE6=Red Top
TTITLE7=Without You
TTITLE8=Merci
TTITLE9=Something For Baby
TTITLE10=Invitation
EXTD=YEAR: 1972
EXTT0=
EXTT1=
EXTT2=
EXTT3=
EXTT4=
EXTT5=
EXTT6=
EXTT7=
EXTT8=
EXTT9=
EXTT10=
PLAYORDER=
